<?xml version="1.0" encoding="UTF-8"?>
<svg id="Camada_2" data-name="Camada 2" xmlns="http://www.w3.org/2000/svg" xmlns:xlink="http://www.w3.org/1999/xlink" viewBox="0 0 1059 267.71">
  <defs>
    <style>
      .cls-1 {
        fill: #fff;
      }

      .cls-2 {
        fill: url(#Gradiente_sem_nome);
      }

      .cls-3 {
        fill: url(#Gradiente_sem_nome_2);
      }
    </style>
    <linearGradient id="Gradiente_sem_nome" data-name="Gradiente sem nome" x1="166.11" y1="217.46" x2="166.11" y2="45.42" gradientTransform="translate(0 267) scale(1 -1)" gradientUnits="userSpaceOnUse">
      <stop offset="0" stop-color="#0064cf"/>
      <stop offset=".07" stop-color="#006dd4"/>
      <stop offset=".18" stop-color="#0086e4"/>
      <stop offset=".33" stop-color="#00affd"/>
      <stop offset=".34" stop-color="#00b3ff"/>
      <stop offset=".56" stop-color="#0052a5"/>
      <stop offset=".87" stop-color="#00cfff"/>
    </linearGradient>
    <linearGradient id="Gradiente_sem_nome_2" data-name="Gradiente sem nome 2" x1="165.12" y1="266.99" x2="165.12" y2="-.7" gradientTransform="translate(0 267) scale(1 -1)" gradientUnits="userSpaceOnUse">
      <stop offset="0" stop-color="#0064cf"/>
      <stop offset=".07" stop-color="#006dd4"/>
      <stop offset=".18" stop-color="#0086e4"/>
      <stop offset=".33" stop-color="#00affd"/>
      <stop offset=".34" stop-color="#00b3ff"/>
      <stop offset=".56" stop-color="#0052a5"/>
      <stop offset=".87" stop-color="#00cfff"/>
    </linearGradient>
  </defs>
  <g id="Camada_1-2" data-name="Camada 1-2">
    <g>
      <path class="cls-2" d="M274.42,179.58c-7.4,1.87-14.8,3.75-22.2,5.63-.17-1.69-.47-3.36-.9-5.01,5.65-1.73,11.1-4.34,16.17-7.82,13.28-9.12,27.36-28.17,19.51-44.94-3.76-8.04-11.27-12.58-19.89-15.02,.32-6.52-1.69-12.98-5.61-18.51-7.66-10.82-20.12-17.08-33.18-19.25-5.46-13.64-19.77-21.76-34.04-24.03-10.04-1.6-20.57-1.23-30.66-.25-7.36,.72-16.47,3.71-18.72,11.43-9.78-4.33-20.91-5.21-31.02-.49-3.59,1.68-6.76,4.07-9.36,6.93-3.39,1.2-6.65,2.81-9.72,4.92-6.14,4.23-11.05,10.29-13.57,17.06-11.95,3.11-22.58,10.25-29.87,21.11-2.08,3.1-3.76,6.38-5.06,9.79-2.55,4.47-3.8,9.59-3.19,15.15-.56,10.24,1.93,20.66,7.34,29.68,5.37,8.95,13.11,15.38,22,19.9,.86,3.05,2.43,5.68,5.09,7.31,4.65,2.84,9.11,1.74,13.17-.76,5.3,1.26,10.7,2.08,16.02,2.56,1.27,1.58,2.66,3.09,4.19,4.51,8.84,8.15,19.75,11.61,31.14,12.42,3.11,1.21,6.52,1.91,10.11,2.1,6.26,.32,12.65-.27,18.94-1.45,1.62,3.51,4.86,6.13,9.07,7.08,3.83,.86,7.57,.24,11.18-1.02,13.89,4.4,29.36,4.21,42.39-2.6,8.02-4.19,14.91-10.98,17.49-19.84,.67-2.3,1.01-4.65,1.08-7.01,7.93-1.1,15.72-3.12,23.21-6,1.8-.69,.68-4.04-1.15-3.58h.04Zm-83.71,35.39c-3.31-1.13-6.52-2.53-9.59-4.18,2.09-.4,4.13-.86,6.09-1.35,.71-.18,1.41-.36,2.11-.55,5.9-.3,11.79-.98,17.61-1.98-3.4,1.88-6.86,3.67-10.32,5.43-1.72,.88-3.75,1.84-5.9,2.63Zm-52.8-8.57c-2.39-1.69-4.22-3.81-5.56-6.19,3.74,.62,7.5,1.13,11.27,1.54,.15,.06,.3,.13,.45,.19,1.71,2.58,4.08,4.8,7.14,6.46-3.43,.17-6.84,.12-10.21-.18-1.07-.52-2.11-1.12-3.09-1.82Zm-47.87-17.63c-5.04-1.25-9.95-2.92-14.55-5.1-.51-2.88-.6-5.89-.37-8.87,.19,.13,.38,.27,.57,.41,3.17,3.09,6.66,5.84,10.37,8.29,.64,.6,1.27,1.21,1.89,1.83,.54,.55,1.34,.81,1.96,.56,.75,.44,1.51,.87,2.28,1.28-.59,.48-1.19,.94-1.81,1.37-.11,.08-.22,.15-.33,.22h0Zm-43.51-51.69c.3-5.41,1.52-10.75,3.63-15.79,6.44-9.44,18.72-14.2,29.54-17.33,.03,.19,.06,.38,.09,.58-.13,.2-.25,.41-.37,.61-4.5,2.12-8.57,5.19-11.87,9.25-11.17,13.74-10.08,34.48-1.25,49.08,.43,.71,.88,1.41,1.34,2.1-3.55-2.63-6.99-5.4-10.1-8.55-5.28-5.35-9.85-12.49-11-19.95h0Zm59.5-65.78c9-3.13,19.02-3.3,28.75-2.34-8.57,3.66-16.67,8.55-23.54,14.72-3.98,.94-7.96,2.32-11.75,4.11,.1-6.01,2.62-11.92,6.54-16.49Zm121.08,17.19c-.21,1.38-.57,2.69-1.03,3.95-1.04-.35-2.09-.66-3.15-.96-1.98-5.17-4.97-9.98-8.84-14-.08-.09-.17-.17-.26-.26,3.99-.27,8.11-.15,12.2,.36,1.18,3.49,1.65,7.2,1.08,10.9h0Zm31.29,38.41c-.19-1.23-.43-2.44-.73-3.62,.26-.14,.52-.28,.77-.42,.95-.54,1.11-1.78,.43-2.63-1.3-1.6-2.65-3.11-4.04-4.53-.31-.61-.63-1.21-.97-1.8,2.05,.19,4.09,.45,6.12,.77,1.18,.19,2.39,.42,3.62,.69-.81,4.07-2.61,8.01-5.18,11.54h-.02Zm-18.73,52.17c-1.37,.15-2.74,.25-4.11,.29,.59-.7,1.16-1.4,1.72-2.11,2.16-2.21,4.25-4.52,6.2-6.92,.11,.17,.22,.34,.34,.51-1.12,2.9-2.53,5.63-4.15,8.23h0Zm6.28-4.54c.51,1.02,.96,2.07,1.37,3.13-1.07,.27-2.15,.52-3.23,.73,.68-1.27,1.3-2.55,1.86-3.86Zm-95.38,29.86c-.07-.05-.14-.1-.21-.15,3.92,1.26,7.91,2.26,11.95,3-1.34,.21-2.68,.4-4.02,.56-2.77-.7-5.38-1.8-7.71-3.41h0Zm-63.02-23.87c-2.88-2.59-5.95-4.95-9.09-7.22-.96-.93-1.89-1.89-2.79-2.89,.17-1,.37-2,.6-2.97,1.74-7.32,5.23-14.06,10.12-19.65,.88,1.09,1.77,2.16,2.69,3.21-.31,.76-.59,1.53-.84,2.33-1.55,5.04-1.79,10.45-.85,15.64-.2,3.29,.33,6.52,1.98,9.34-.34,.92-.67,1.85-.98,2.78-.28-.18-.56-.37-.84-.56h0Zm-10.86-69.68c-4.37,12.01,.16,23.98,7.41,33.96-5.6,6.27-9.47,14-11.23,22.22-9.87-12.93-14.09-30.3-5.9-45.41,2.48-4.58,5.83-8.14,9.71-10.77h0Zm143.78-16.78c.25,.79,.47,1.58,.67,2.39-.23-.07-.45-.14-.68-.21-.73-.96-1.56-1.86-2.48-2.68,.83,.15,1.66,.32,2.49,.51h0Zm33.55,27.23c-5.29,2.82-10.79,5.22-16.45,7.17-4.07-4.09-8.84-7.38-14.01-9.97,.36-.99,.66-1.99,.93-3,1.68-.34,3.37-.65,5.06-.9,6-.89,12.09-1.27,18.16-1.09,1.77,1.42,3.46,2.93,5.05,4.54,.48,1.07,.89,2.15,1.25,3.25h0ZM118.92,191.93h-.01c-4.11-.05-8.18-.93-11.91-2.58-.7-1.09-1.33-2.23-1.92-3.38,3.03-.08,6.15-.66,9.2-1.48,1.66,.76,3.39,1.44,5.18,2.03,1.87,1.69,3.81,3.29,5.83,4.8-1.41,.29-2.83,.48-4.26,.56-.7,.02-1.4,.04-2.1,.05h-.01Zm-27.2-19.47c-.54-1.65-.93-3.34-1.18-5.06,.54-3.52,2.09-7.09,3.99-10.42,.55,.58,1.11,1.17,1.67,1.75-.02,1.54,0,3.09,.06,4.63-1.67,2.95-3.18,5.99-4.54,9.1h0Zm-.75-15.87c.21-.89,.47-1.77,.76-2.62,.14,.15,.28,.31,.42,.46-.23,.41-.46,.83-.68,1.24-.18,.34-.35,.68-.52,1.02,0-.04,.01-.07,.02-.11h0Zm-2.38-11.14c1.36-1.35,2.81-2.61,4.34-3.78,.17,.55,.34,1.09,.53,1.63-1.08,1.43-2.05,2.93-2.89,4.51-.67-.77-1.33-1.56-1.98-2.36Zm-10.46-25.6c.2-3.85,1.25-7.44,2.92-10.71,.42,1.11,.9,2.21,1.49,3.29,2.23,4.14,5.15,7.51,8.55,10.24-.45,5.07-.19,10.17,.85,15.11-1.97,1.4-3.85,2.97-5.64,4.71-4.92-6.7-8.61-14.26-8.17-22.64Zm95.68-32.1c.17,.9,.26,1.8,.27,2.71-.54,.13-1.08,.27-1.61,.4-.63-1.4-1.31-2.79-2.03-4.15,1.12,.36,2.24,.7,3.36,1.03h0Zm44.94,11.36c.51,.84,.91,1.73,1.22,2.64-2.64,2.64-5.76,4.87-8.97,6.68-2.39,1.34-4.87,2.55-7.42,3.64-8.12-1.44-16.48-1.95-24.83-1.7-.11-.49-.22-.97-.33-1.46,2.28-1.45,4.37-3.19,6.13-5.35,2.32-2.86,3.95-6.39,4.38-10,1.74-.27,3.49-.5,5.23-.69,8.22,1.88,16.53,3.72,24.58,6.23h0Zm-13.84,98.12c-4.29,1.09-8.58,2.17-12.87,3.26-.09,.02-.18,.05-.28,.07-5.51-.05-11.01-.14-16.51-.29,1.63-3.08,3.89-5.92,5.69-7.99,8.02-1.62,16.21-3.96,23.86-7.28,4.62,1.56,9.39,2.75,14.23,3.6-3.97,2.8-8.06,5.35-12.15,7.6-.65,.36-1.31,.69-1.97,1.04h0Zm-110.3-62.02c-.55-3.41-.7-6.87-.49-10.33,1.61,1.05,3.3,1.97,5.05,2.79-.97,2.23-1.63,4.54-2.02,6.91-.81,.43-1.61,.88-2.39,1.36-.04-.24-.1-.48-.14-.73h-.01Zm.94-30.03c-1.92,4.45-3.28,9.14-4.02,13.91-3.57-3.24-6.46-7.22-8-11.73,3.81-1.4,7.88-2.12,12.01-2.19h0Zm3.68,.12c1.51,.12,3.03,.33,4.53,.61,3.23,3.68,7.22,6.58,11.61,8.9-.17,.07-.33,.15-.49,.22-5.9,1.37-11.16,4.6-14.39,10.04-1.91-.92-3.77-1.99-5.57-3.26-.16-.11-.31-.23-.47-.35,.72-5.6,2.37-11.1,4.79-16.16h-.01Zm78.41,.41c-.59-2.26-1.26-4.5-2-6.72,.33-.9,.62-1.81,.84-2.73,3.24-.88,6.53-1.63,9.83-2.23-.83,4.86-4.42,8.77-8.68,11.68h.01Zm60.2,35.19c-.19-1.66-.53-3.32-1.02-4.95,1.48,1.15,2.65,2.56,3.43,4.17-.8,.28-1.6,.55-2.41,.78h0Zm-71.68,50.3c-.13-.38-.26-.77-.38-1.15,4.9-.51,9.78-1.28,14.6-2.31-.09,.1-.19,.19-.28,.29-.4,.42-.79,.86-1.18,1.3-3.04,.58-6.06,1.05-9.02,1.44-1.24,.16-2.48,.3-3.73,.43h-.01Zm3.6-87.48c-.16-.19-.32-.39-.48-.58,.91-1.37,1.88-2.69,2.9-3.98-.68,1.57-1.5,3.1-2.41,4.56h0Zm21.71,37.54c-.39-.49-.81-.97-1.24-1.42,.04-.02,.08-.04,.12-.05,1.03,.04,2.07,.05,3.09,.02-.58,.43-1.16,.87-1.74,1.29-.08,.06-.15,.11-.23,.16h0Zm-1.03,21.85c-4.04-2.72-8.01-5.58-11.98-8.45,2.76-1.74,5.48-3.53,8.18-5.37,1.84-.05,3.71-.06,5.59-.04,1.13,3.8,.89,8-1,12.24-.25,.55-.51,1.09-.79,1.62h0Zm-48.91,11.18c1.67-.73,3.34-1.49,5-2.25-.54,.89-1.05,1.8-1.53,2.72-1.16-.14-2.32-.29-3.47-.47Zm31.1-15.19c1.62,5.64,5.25,10.25,9.67,13.97-.17,.15-.35,.3-.52,.44-4.19-4.32-7.99-8.99-11.35-13.96,.68-.4,1.36-.79,2.03-1.19,.06,.25,.11,.49,.18,.74h0Zm15.98,21.33c0-.28-.12-.57-.37-.78-1.22-1.06-2.4-2.15-3.57-3.26-.04-.29-.14-.58-.3-.83,.17-.15,.34-.31,.52-.46,1.36,.99,2.77,1.91,4.2,2.76,.57,.34,1.14,.67,1.72,.99-.75,.51-1.48,1.04-2.21,1.58h.01Zm-33.58,2.89c-.65-1.42-1.25-2.87-1.8-4.33,2.05,.11,4.09,.18,6.13,.21,.44,1.65,.91,3.3,1.4,4.94-1.62,.39-3.25,.69-4.89,.91-.28-.57-.56-1.15-.83-1.73h0Zm-26.04-11.97c-2.6-.85-5.16-1.85-7.65-3.03,1-.61,2.01-1.2,3.02-1.78,2.85-1.63,5.77-3.14,8.73-4.55-.15,.3-.31,.6-.46,.9-1.37,2.72-2.61,5.56-3.64,8.46h0Zm-1.44,4.67c-.26,.1-.52,.2-.77,.3-.83-.82-1.63-1.7-2.39-2.65-.14-.17-.26-.35-.39-.52,1.3,.51,2.62,.98,3.95,1.42-.14,.48-.27,.97-.39,1.45h-.01Zm2.37-42.87c2.4,.44,4.77,1.03,7.11,1.76,.42,.99,.82,1.98,1.21,2.99-4.44,4.53-8.85,9.09-13.09,13.79-2.24,2.48-4.49,5.18-6.35,8.09-.71-9.58,4.09-19.34,11.13-26.63h-.01Zm-28.61,18.67c-.08-.31-.16-.62-.23-.93,.78-2.63,1.88-5.2,3.18-7.66,2.88-3.6,5.96-7.05,9.2-10.34,1.12-.18,2.25-.32,3.38-.42,1.93,.23,3.87,.39,5.79,.49-7.55,5.84-14.33,12.75-20.05,20.62-.44-.58-.86-1.16-1.27-1.76h0Zm.56-11.38c.08-.33,.16-.65,.24-.98l.66-.57c-.31,.51-.61,1.02-.89,1.54h-.01Zm77.32-12.03c-2.78-1.64-5.51-3.35-8.19-5.09,2.1-.19,4.19-.44,6.28-.74,.58,1.66,1.09,3.35,1.51,5.06,.08,.32,.22,.57,.4,.78h0Zm-12.77-8.14c-.37-.25-.74-.5-1.1-.74l-2.82-1.92c.11-.12,.22-.24,.33-.36,2.62-.62,5.28-1.15,7.97-1.56,1.1-.16,2.19-.31,3.29-.44,.71,1.35,1.36,2.73,1.95,4.13-3.22,.42-6.44,.72-9.63,.9h.01Zm-2.71,63.04c-.4-1.37-.79-2.74-1.16-4.12,.65,0,1.31,0,1.95-.02,3.19-.06,6.37-.19,9.55-.35-.52,.29-1.04,.58-1.56,.86-2.78,1.48-5.74,2.7-8.78,3.64h0Zm16.44-8.53c-6.08,.38-12.31,.72-18.54,.75-.81-3.29-1.53-6.6-2.13-9.92,3.11-1.64,6.19-3.34,9.24-5.09,.58,.86,1.18,1.71,1.79,2.55,2.97,4.11,6.25,7.98,9.79,11.59-.05,.04-.1,.08-.15,.12h0Zm-21.31-13.09c-.02-.12-.04-.24-.06-.36,2.05-2.16,4.23-4.21,6.52-6.16,.44,.73,.89,1.46,1.34,2.18-2.58,1.49-5.18,2.94-7.81,4.34h0Zm.3-4.99c-.28,.28-.57,.56-.85,.84-.17-1.48-.31-2.97-.42-4.45,1.84-.46,3.69-.87,5.55-1.24,.12,.21,.23,.43,.35,.64-1.58,1.36-3.13,2.76-4.62,4.21h-.01Zm-24.88-27.53c.11,.2,.23,.41,.34,.61-.38,.02-.77,.03-1.15,.05,.27-.22,.54-.44,.81-.66Zm2.5-1.63c2.33-1.33,4.7-2.58,7.13-3.72,1.46,.67,2.91,1.36,4.37,2.05-.05,.65-.12,1.3-.21,1.94l-.09,.09c-.42,.43-.84,.86-1.25,1.29-2.91,.12-5.87,.29-8.84,.44-.36-.7-.73-1.4-1.11-2.09Zm-1.7-2.9c-.45-.73-.92-1.44-1.4-2.15,.87-.3,1.75-.59,2.62-.88,.93,.18,1.85,.34,2.76,.49-1.36,.8-2.69,1.64-3.99,2.53h.01Zm-4.32-1.09c.62,.86,1.21,1.74,1.77,2.63-1.64,.99-3.25,2.02-4.83,3.1-3.13-.39-6.26-.52-9.37-.38,4.02-2.02,8.2-3.79,12.43-5.35Zm-4.3-2.25c.52-.41,1.04-.82,1.57-1.22,.13,.15,.26,.3,.39,.46-.65,.25-1.31,.51-1.96,.77h0Zm17.1,11.15c-.24,.24-.47,.48-.71,.73-.54-.21-1.09-.41-1.63-.61,.78-.04,1.56-.08,2.34-.12h0Zm8.99-4.57c.51,.24,1.02,.47,1.53,.7,.04,.14,.07,.29,.11,.43h-.34c-.81,0-1.63,0-2.45,.03,.38-.39,.77-.78,1.15-1.16Zm1.75-7.48c-.05-.24-.09-.47-.13-.71,.96-.32,1.92-.64,2.89-.93-.55,.56-1.1,1.12-1.66,1.67-.37,0-.73-.02-1.1-.03h0Zm-10.85,16.77c.66,.27,1.32,.55,1.97,.84-.63,1.67-1.34,3.32-2.11,4.94-.46-1.41-.94-2.81-1.44-4.19,.53-.53,1.06-1.06,1.58-1.6h0Zm2.61-2.66l.27-.27c.17-.18,.35-.36,.53-.54-.1,.34-.2,.69-.3,1.03-.16-.07-.33-.14-.49-.21h0Zm4.49-2.34c1.3-.03,2.6-.06,3.9-.06h.64c.07,.23,.15,.46,.23,.7-.26,1.99-.44,3.99-.57,6-1.71-.95-3.45-1.86-5.22-2.72,.39-1.29,.74-2.6,1.02-3.92h0Zm7.2,7.52c.14,.36,.28,.73,.43,1.09-.16-.09-.32-.19-.48-.28,0-.27,.03-.54,.05-.81Zm2.83,6.55c.38,.79,.76,1.58,1.16,2.36-1.36,.28-2.71,.59-4.06,.92-.07-1.71-.1-3.42-.08-5.12,1,.6,2,1.22,2.99,1.85h-.01Zm10.13,.81c-.78,.11-1.55,.22-2.33,.34-2.36-1.63-4.75-3.22-7.17-4.75-1.04-2.39-1.99-4.82-2.85-7.29-.06-.19-.13-.37-.19-.56,.1-.88,.21-1.75,.34-2.63,1.84,.06,3.69,.16,5.54,.33,.34,.11,.69,.22,1.03,.33,3.68,1.8,7.64,3.37,11.73,4.57-1.68,2.52-3.03,5.26-3.9,8.13-.75,.5-1.48,1.01-2.21,1.54h.01Zm-14.28-23.14c.06-.06,.11-.12,.17-.17,.12,0,.24,0,.36,.01-.03,.14-.07,.28-.1,.42-.14-.09-.29-.17-.43-.26Zm-31.92,33.39c4.56-5.69,9.76-10.94,14.96-16.15,.66,1.92,1.26,3.86,1.83,5.82-1.72,3.3-3.59,6.54-5.39,9.79-5.54,2.4-10.91,5.17-16.07,8.3-.04-.12-.08-.25-.12-.37,1.31-2.66,3.03-5.17,4.8-7.39h-.01Zm18.02-5.83c.21,.8,.42,1.61,.63,2.41-.84,.31-1.68,.62-2.51,.94,.63-1.12,1.26-2.23,1.88-3.36h0Zm2.15-3.98c1.12-2.15,2.17-4.33,3.1-6.55,.21-.51,.42-1.03,.61-1.55,2,.97,3.97,2,5.9,3.08,.1,.05,.19,.11,.28,.16-.06,2.54-.03,5.09,.09,7.64-2.88,.77-5.74,1.63-8.57,2.59-.44-1.8-.91-3.59-1.42-5.37h0Zm10.22,6.36c.17,2.16,.4,4.32,.69,6.47-1.64,1.74-3.22,3.56-4.72,5.45-.49,.24-.99,.48-1.48,.72-.88-3.39-1.67-6.8-2.47-10.19,2.63-.9,5.29-1.72,7.97-2.45h0Zm-2.69,15.43c1.49-.73,2.97-1.47,4.44-2.22,.52,2.84,1.13,5.65,1.8,8.45-2.17-.03-4.34-.1-6.5-.22-.43-1.28-.83-2.56-1.21-3.85,.47-.73,.96-1.45,1.46-2.15h0Zm16.18-12.96c-.51-.82-1.02-1.65-1.51-2.48,.76-.62,1.53-1.22,2.31-1.82,.87,.61,1.75,1.23,2.61,1.86,0,.13,.02,.26,.03,.38-1.15,.69-2.3,1.38-3.45,2.06h0Zm6.65-4.23c.04-.69,.11-1.4,.23-2.12,1.14-.12,2.28-.23,3.43-.32,.19,0,.37-.03,.56-.04-1.35,.88-2.71,1.74-4.07,2.59-.05-.04-.1-.07-.15-.11h0Zm2.77-9.67c.75-1.45,1.62-2.82,2.59-4.1,1.2,.28,2.4,.52,3.61,.72-2.1,1.05-4.17,2.18-6.2,3.38Zm2.45-9.39c-.31-.05-.62-.11-.93-.16-3.89-1.48-8.11-2.44-12.29-3.02-2.5-1.23-4.94-2.59-7.35-4,.16-.69,.32-1.38,.5-2.07,1.81,0,3.61-.06,5.42-.14,4.84,3.24,9.73,6.4,14.77,9.27-.04,.04-.08,.08-.12,.13h0Zm-.2-4.19c.84,.17,1.74-.39,1.58-1.64-.22-1.75-.46-3.51-.72-5.27,6.45-1.12,12.82-2.73,19.03-4.85,1.01-.35,2.03-.72,3.05-1.12,1.39,.23,2.78,.5,4.17,.8-.31,.12-.63,.23-.95,.35-8.2,3.18-16.72,7.33-23.35,13.34-.94-.53-1.88-1.06-2.81-1.6h0Zm.35-10.18c-.22-1.33-.45-2.66-.71-3.98,5.33-.33,10.67-.24,15.98,.3-4.97,1.6-10.1,2.82-15.28,3.68h.01Zm-30.12-4.7c-.09-.3-.19-.6-.28-.9,.36,.24,.73,.48,1.09,.72-.27,.06-.54,.12-.8,.18h0Zm-29.11,3.78c-3.27,2.88-6.39,5.93-9.32,9.16-.44,.49-.88,.98-1.32,1.48-1.2-.26-2.39-.57-3.57-.92,2.63-4.17,6.15-7.51,10.64-9.39,1.17-.19,2.37-.3,3.57-.34h0Zm-13.91,12.81c-.79,.21-1.57,.45-2.35,.7,.19-.41,.39-.81,.59-1.21,.58,.18,1.17,.35,1.76,.51h0Zm14.4,7.58c-4.99,7.86-6.95,17.1-5.09,25.63-.23,.51-.45,1.02-.65,1.54-1.5-.92-2.97-1.9-4.4-2.98-2.41-1.8-4.61-3.81-6.58-6,4.82-6.74,10.45-12.85,16.73-18.19h0Zm-4.04,38.03c-.35-1.85-.3-3.72,.04-5.57,.11-.07,.22-.15,.33-.22,.39,.2,.78,.39,1.18,.58,1.18,2.28,2.69,4.45,4.56,6.47-1.11,.42-2.32,.88-3.59,1.34-.84-.86-1.68-1.73-2.52-2.59h0Zm14.36-4c1.57-4.29,3.65-8.38,5.88-12.4,2.03-.87,4.08-1.69,6.16-2.46,.87,3.5,1.72,7.01,2.64,10.48-3.83,1.81-7.69,3.53-11.6,5.16-1.03-.24-2.05-.5-3.07-.78h0Zm18.04,6.52c.82,2.23,1.72,4.43,2.73,6.57-2.76,.16-5.51,.06-8.2-.35,.53-2.24,1.32-4.45,2.27-6.53,1.07,.12,2.14,.21,3.2,.3h0Zm19.57,6.51c4.9-2.07,9.64-4.45,14.25-7.11h0c1.12,1.05,2.26,2.08,3.43,3.08,.06,.05,.11,.08,.16,.12-.62,.48-1.23,.98-1.83,1.48-6.16,1.6-12.41,2.78-18.69,3.52,.89-.35,1.79-.71,2.67-1.08h0Zm24.58-8.56c-2.37-1.19-4.66-2.52-6.78-3.98,1.51-1.55,2.89-3.19,4.09-4.92,2.97,1.94,6,3.79,9.11,5.49-.98,.45-1.94,.92-2.9,1.42-1.19,.62-2.36,1.3-3.52,1.99h0Zm-9.42-5.93c-4.8-3.86-8.39-8.55-9.44-14.16,.04-.02,.08-.05,.12-.07,4.41,3.19,8.8,6.4,13.29,9.43-1.17,1.71-2.51,3.31-3.97,4.8h0Zm.09-24.85c-2.41,.07-4.81,.2-7.21,.4,3.11-1.89,6.31-3.61,9.56-5.14,.63,.6,1.21,1.22,1.75,1.87-1.36,.97-2.72,1.92-4.1,2.86h0Zm28.68-13.16c3.77-.63,7.59-.93,11.27-.68-4.34,.95-8.73,1.65-13.15,2.1,.64-.44,1.26-.92,1.88-1.42h0Zm-6.99-3.29c-.8,.68-1.61,1.34-2.42,2.01-3.35,.88-6.65,1.95-9.84,3.15-.76-.04-1.51-.06-2.27-.12-.56-.04-1.12-.09-1.68-.13-1.37-.66-2.74-1.34-4.09-2.05,4.16-3.47,9.01-6.23,13.77-8.56,4.3-2.1,8.74-3.86,13.28-5.33,1.02,.33,2.03,.69,3.03,1.07-2.7,3.78-6.27,6.99-9.78,9.95h0Zm-36.92-19.59c-.19,.08-.39,.14-.59,.22,.36-.45,.71-.91,1.06-1.37,.18,.25,.36,.5,.53,.75-.34,.14-.68,.28-1.01,.41h0Zm-3.97-.53c.66-1.27,1.35-2.52,2.08-3.73,.14,.17,.27,.33,.4,.5-.8,1.1-1.63,2.18-2.48,3.23Zm1.32-8.84c-.31-.32-.63-.64-.95-.95,.71-.26,1.43-.51,2.15-.75-.41,.56-.81,1.13-1.2,1.71h0Zm-1.58,2.42c-1.36,2.21-2.59,4.53-3.69,6.95-.33,.72-.64,1.44-.94,2.17-1.72,.27-3.43,.56-5.13,.88-.86-.58-1.72-1.16-2.59-1.74-.14-2.09-.19-4.17-.1-6.22h0c3.27-1.54,6.67-3,10.16-4.34,.78,.75,1.54,1.52,2.27,2.31h.02Zm-14.38,6.89c-1.12-.74-2.25-1.47-3.38-2.2,1.12-.58,2.24-1.15,3.37-1.71-.04,1.31-.03,2.62,0,3.91h.01Zm-5.48,.39c.76,1.43,1.35,2.94,1.78,4.49-1.85,.45-3.71,.93-5.56,1.44-1.21-.5-2.44-.97-3.7-1.38-.57-.19-1.15-.36-1.74-.53,2.6-1.69,5.26-3.3,7.97-4.82,.41,.26,.83,.52,1.24,.79h0Zm-40.48,51.93c-.25-.53-.49-1.08-.73-1.63,3.11,3.12,6.54,5.76,10.21,7.97-.39,.26-.79,.52-1.18,.79-.5,.34-.98,.7-1.47,1.04-1.91-1.96-3.81-3.93-5.71-5.9-.39-.75-.76-1.51-1.12-2.28h0Zm20.9,22.64c-1.01-1.03-2.01-2.07-3.02-3.1,1.29-.48,2.53-.95,3.72-1.39-.25,1.5-.42,3.02-.5,4.53-.07,0-.13-.03-.2-.04Zm4.07-5.78c1.95-.75,3.9-1.52,5.83-2.32,2.51,.55,5.04,.99,7.59,1.35-.77,1.82-1.41,3.68-1.89,5.6-.06,.24-.11,.48-.17,.72-4.07-.99-7.93-2.72-11.38-5.29,0-.02,0-.04,0-.06h.01Zm57.19,7.06c3.8-1.01,7.55-2.18,11.24-3.52,.61,.26,1.22,.51,1.83,.76-4.94,1.93-10.07,3.47-15.22,4.69,.7-.66,1.41-1.3,2.14-1.93h0Zm10.87-7.54c2.13-1.17,4.33-2.21,6.57-3.13,.34,.17,.68,.33,1.03,.49-2.34,1.02-4.7,1.97-7.09,2.85-.17-.07-.33-.14-.5-.22h-.01Zm11.1-4.8c1.04-.34,2.09-.66,3.14-.95-.83,.42-1.67,.83-2.51,1.23-.21-.09-.42-.19-.64-.28h0Zm-4.54-2.16c-3.7-1.88-7.29-4-10.77-6.23-.21-.14-.43-.28-.64-.42,2.51-4.68,3.59-9.88,2.28-15.39-.02-.07-.04-.14-.06-.21,12.51,.51,25.43,3,35.71,9.36-.76,1.51-1.62,2.98-2.57,4.39-2.13,1.5-4.31,2.94-6.53,4.31-5.95,.61-11.82,2.02-17.42,4.19h0Zm-10.31-25.57c-.24-.55-.5-1.08-.77-1.6,1.44-1.05,2.86-2.11,4.28-3.18,11.84,4.32,24.87,6.47,37.06,4-.2,3.58-1.07,7.2-2.47,10.66-11.19-6.74-25.21-9.29-38.1-9.87h0Zm35.48-3.53c-9.96,1.11-19.57-.49-28.76-3.66,.87-.2,1.73-.44,2.58-.71,9.82-.29,19.57-1.78,29-4.44,.1,.04,.2,.07,.3,.11,1.1,2.5,1.73,5.15,1.93,7.86-1.66,.37-3.35,.66-5.05,.85h0Zm-6.88-13.52c-1.88-.03-3.78,.05-5.68,.2,1.92-2.16,3.49-4.51,4.74-6.97,1.02,.58,2,1.21,2.95,1.89,2.46,1.76,4.4,3.77,5.91,5.95-2.59-.69-5.31-1.04-7.92-1.08h0Zm-3.2-16.01c-1.99,.48-3.97,1.01-5.93,1.61-1.51-.48-3.04-.91-4.58-1.3,4.17-2.09,8.16-4.64,11.54-7.68,.16,2.46-.23,4.99-1.03,7.37Zm-46.52-4.67c-.45-.67-.92-1.34-1.4-1.99,.75-1.12,1.46-2.28,2.1-3.47,.44,1.47,.85,2.95,1.22,4.44-.64,.36-1.28,.7-1.93,1.02h0Zm-53.43,5.12c-2.11-.97-4.16-2.05-6.12-3.26-1.27-.79-2.5-1.65-3.67-2.58,3.8,1.35,7.41,3.24,10.65,5.65-.29,.05-.57,.12-.85,.18h-.01Zm-23.05,25.7c0,.15-.02,.31-.02,.46-.29,.3-.57,.59-.85,.9-.07-.23-.14-.45-.2-.68,.35-.23,.71-.45,1.07-.68h0Zm3.47,24.56c.1-.17,.2-.34,.3-.51,1.06,1.08,2.12,2.16,3.17,3.24,1.25,2.38,2.64,4.69,4.16,6.9-.66,.51-1.32,1.03-1.97,1.56-1.51-1.61-2.81-3.44-3.81-5.54-.89-1.86-1.49-3.75-1.85-5.66h0Zm9.71,12.52c1.11,1.46,2.29,2.89,3.51,4.27-1.75-.91-3.4-1.96-4.91-3.16,.47-.37,.93-.74,1.4-1.1h0Zm-.49,5.7c-2.02,.37-4.02,.59-5.93,.58-.1-.24-.2-.48-.29-.72,.91-.81,1.83-1.61,2.77-2.39,1.08,.91,2.24,1.76,3.46,2.53h0Zm19.82,3.56c.04-1.01,.12-2.01,.24-3.01,2.59,1.78,5.36,3.15,8.25,4.16-1.95-.2-3.89-.43-5.83-.71-.87-.13-1.76-.28-2.66-.43h0Zm24.48,5.31c.62,0,1.24-.03,1.86-.05,.23,.38,.46,.76,.69,1.13-2.24,.06-4.48,.06-6.72,0,1.39-.34,2.78-.7,4.17-1.08Zm5.31-.19c1.22-.07,2.44-.14,3.66-.24,.12,.38,.24,.77,.37,1.15-1.09,.09-2.19,.16-3.28,.22-.25-.37-.5-.75-.75-1.13h0Zm5.11,4.11c.1,.29,.2,.59,.3,.88,.71,2.05,3.39,.83,2.81-1.17,2.37-.25,4.73-.55,7.09-.92,.45-.07,.9-.15,1.36-.22-1.61,2.16-3.03,4.46-4.06,6.91-1.68-.06-3.37-.12-5.05-.2-1.61-1.62-3.12-3.34-4.53-5.14,.69-.04,1.39-.08,2.08-.14h0Zm9.26,10.44c.12-.52,.26-1.04,.44-1.57,1.9,.04,3.8,.08,5.69,.12-2.03,.5-4.07,.99-6.13,1.45h0Zm39.98-21.5c-1.16-.28-2.38-.6-3.64-.96,1.81-.93,3.59-1.91,5.31-2.97,3.98,1.3,8.02,2.19,12.07,2.67-1.27,1.07-2.56,2.11-3.87,3.12-3.31-.46-6.61-1.07-9.87-1.87h0Zm-8.22-2.37c-.57-.19-1.15-.39-1.72-.6,2.21-.89,4.39-1.83,6.55-2.84,.36,.15,.71,.29,1.07,.44-1.91,1.08-3.88,2.07-5.89,3h-.01Zm9.04-5.49c1.33-.68,2.66-1.38,3.96-2.11-1.09,.81-2.2,1.58-3.35,2.32-.21-.07-.41-.14-.62-.21h0Zm21.02-18.06s-.03-.02-.04-.03c1.77-4.21,2.81-8.7,2.85-13.18,1.09-.3,2.18-.63,3.25-1.01,.2,1.45,.12,3.01-.26,4.63-.9,3.79-3.1,6.91-5.8,9.59h0Zm-97.41-52.16c-3.63,2.24-7.14,4.66-10.52,7.26-.74-.03-1.47-.03-2.2,0-2.55-2.24-5.37-4.25-8.53-6-3.68-2.03-7.67-3.48-11.78-4.33-.8-1-1.54-2.06-2.18-3.17h0c7.35-.86,14.78-1.06,22.05-.4,4.54,1.95,8.91,4.21,13.17,6.66v-.02Zm-32.61-10.03c.54-.71,1.09-1.41,1.65-2.09,2.36,.42,4.72,.97,7.06,1.63-2.9,.04-5.81,.2-8.71,.46Zm-4.36,.1c-.29-.8-.55-1.61-.75-2.45-.05-.2-.08-.41-.12-.61,.96,.07,1.92,.16,2.88,.27-.69,.91-1.36,1.84-2,2.79h0Zm-2.63,4.25c-.06,.1-.12,.21-.18,.31-.26,.46-.5,.93-.75,1.4-4.12-.11-8.24,.38-12.16,1.49,.2-.24,.4-.47,.6-.7,4.09-1.02,8.27-1.87,12.48-2.51h0Zm-3.13,47.5c.2,.45,.42,.89,.63,1.33-.63,.94-1.23,1.88-1.82,2.84-.25-.27-.5-.54-.75-.82,.57-1.16,1.22-2.28,1.94-3.36h0Zm8.31,29.56c-.45,.38-.91,.75-1.35,1.14-.03,.02-.05,.05-.08,.07-.44-1.48-.82-2.98-1.13-4.51,.77,1.18,1.62,2.27,2.56,3.3h0Zm28.75,12.6c2.22,.33,4.45,.59,6.64,.78-.7,.11-1.4,.22-2.1,.32-1.52-.29-3.04-.65-4.54-1.1Zm15.04,5.46c3.73,.18,7.47,.19,11.21,.05,.06,.09,.12,.18,.19,.26,1.13,1.55,2.34,3.04,3.62,4.47-5.61-.3-11.2-.72-16.78-1.29-.57-1.17-.97-2.41-1.23-3.68,1,.08,2,.13,3,.18h-.01Zm18.44,8.37c.45,.43,.91,.86,1.37,1.27-2.91-.41-5.8-.94-8.67-1.61,2.43,.14,4.87,.24,7.31,.34h0Zm65.01-24c-1.04-.06-2.07-.15-3.1-.28-2.97-.37-5.88-.98-8.74-1.79,2.04-1.44,3.99-2.99,5.82-4.66,.71-.65,1.4-1.32,2.07-2.02,3.65-.14,7.32,.03,10.97,.54-1.43,2.02-2.94,3.97-4.53,5.86-.82,.8-1.65,1.58-2.49,2.35Zm10.41-11.04c-.12-.06-.25-.1-.38-.13-3.62-.69-7.29-1.05-10.96-1.1,.23-.3,.46-.6,.69-.91,1.86-1.3,3.68-2.7,5.36-4.2,1.5,1.22,2.93,2.53,4.26,3.97,.53,.57,1.03,1.16,1.53,1.77-.16,.2-.33,.4-.49,.61h0Zm-3.08-8.51c3.69-3.9,6.3-8.5,6.46-14.07v-.78c1.84,5.01,2.56,10.39,1.96,15.9-.93,1.47-1.92,2.91-2.95,4.33-1.67-1.98-3.5-3.76-5.47-5.38h0Zm-2.27-49.4c-3.48,.29-6.95,.77-10.39,1.4,.52-3.43,.54-6.93,.12-10.41,6.07,2.25,11.92,5.02,17.39,8.6-2.5,.07-4.9,.22-7.11,.4h0Zm-22.06-16.1c-2.42-.66-4.86-1.28-7.31-1.88,1.14,.03,2.29,.09,3.43,.17,1.36,.44,2.66,1.01,3.89,1.71h0Zm-28.86-6.99c.23-.16,.46-.31,.69-.46,.1,.23,.2,.47,.29,.71-.33-.08-.65-.16-.98-.24h0Zm-4.22-1.11c-1.5-.41-3-.83-4.48-1.27-.66-1.87-1.6-3.55-2.76-5.06,3.92,.04,7.78,1.4,10.3,4.16-1.04,.69-2.06,1.41-3.06,2.17h0Zm-10.32-5.57c.91,1.02,1.64,2.08,2.22,3.18-1.55-.5-3.08-1.02-4.59-1.58-.27-.43-.55-.85-.83-1.27,.89-.34,1.82-.6,2.77-.78,.14,.15,.29,.29,.43,.45Zm-4.91-2.1c-.87-1.18-1.79-2.33-2.75-3.45,1.63,.78,3.17,1.7,4.59,2.77-.63,.2-1.25,.43-1.84,.68Zm-8.8-5.64c2.32,2.16,4.39,4.49,6.25,6.95-.13,.08-.26,.15-.39,.23-.52-.22-1.04-.45-1.56-.68-3.72-1.67-8.76-4.47-11.43-8.26,2.3,.43,4.65,.95,6.97,1.63,.05,.05,.1,.09,.15,.14h0Zm9.95,12.48c1.2,2.03,2.29,4.12,3.27,6.27-3.14,.87-6.25,1.86-9.31,2.98-1.41-1.1-2.87-2.14-4.37-3.11,1.46-2.97,3.49-5.62,6.23-7.79,1.37,.59,2.77,1.14,4.18,1.65Zm-9.16,10.43c-1.1,.44-2.2,.88-3.29,1.35,.25-1.02,.55-2.02,.91-2.99,.81,.52,1.61,1.07,2.39,1.64h-.01Zm-5.52,2.32c-2.96,1.33-5.86,2.78-8.7,4.34-4.63-4.02-10.78-6.17-17.32-6.89-5.17-2.27-10.5-4.12-16.05-5.38,1.07-1.13,2.18-2.22,3.33-3.27,11.84-2.62,24.57-1.42,35.57,3.73,1.53,.71,3.01,1.51,4.45,2.36-.54,1.65-.96,3.36-1.28,5.11Zm-46.14-8.73c-.18-.03-.35-.06-.53-.09,.3-.12,.61-.23,.91-.34-.13,.14-.25,.28-.38,.43Zm-7.58,6.96c-2.5,.36-4.98,.8-7.43,1.29,2.05-1.68,4.26-3.2,6.56-4.53,.22,1.09,.51,2.17,.88,3.24h0Zm-4.41,80.76s-.04-.09-.06-.13c.98-2.42,2.05-4.79,3.21-7.12,.48,3.69,1.25,7.32,2.38,10.8-.34,.33-.67,.66-1,.99-.85-.29-1.64-.67-2.39-1.13-.79-1.07-1.51-2.21-2.14-3.41Zm44.45,16.97c.99,.16,1.99,.3,2.99,.41,.19,1,.44,1.98,.77,2.94-2.03-.93-4.02-1.94-5.98-3.03,.74-.1,1.48-.21,2.22-.32h0Zm94.47-11.31c1.55,.04,3.09,.02,4.63-.06-.95,1.28-1.96,2.52-3.01,3.72-1.65-.05-3.3-.14-4.95-.27,1.14-1.1,2.25-2.24,3.33-3.4h0Zm17.13-27.79c-.22-4.66-1.27-9.28-3.24-13.7,.09-.04,.18-.08,.27-.13,3.21-1.64,6.22-3.73,8.91-6.18-.27,4.15-1.17,8.3-2.6,12.3-.94,2.63-2.06,5.2-3.33,7.7h0Zm-4.8-16.81c-.24-.42-.48-.85-.74-1.27-1.22-1.99-2.57-3.85-4.04-5.59,5.08-1.81,10.04-3.97,14.82-6.49,.38,1.79,.63,3.6,.73,5.42-3.11,3.31-6.77,5.95-10.77,7.93h0Zm-18.08-39.7c.43-.69,.82-1.4,1.19-2.13,6.99,2.62,13.45,6.73,18.44,12.25-6.03-4.32-12.66-7.53-19.63-10.12Zm-2.43-2.33c-.09-.37-.18-.73-.29-1.1,.25,.07,.51,.16,.76,.23-.15,.29-.31,.58-.47,.86h0Zm-8.61-11.42c1.33,1.86,2.43,3.85,3.35,5.91-1.92-.4-3.85-.71-5.79-.92-.74-.08-1.49-.15-2.23-.21-1.03-.4-2.1-.73-3.22-1-6.17-1.49-12.82-1.47-19.4-.69-.23-.79-.53-1.56-.91-2.31,5.54-3.36,11.74-5.83,18.51-7.18,1.14-.23,2.31-.42,3.49-.58,2.25,2.06,4.33,4.38,6.2,6.99h0Zm-30.06-2.04c-3.62-4.25-9.61-6.36-15.12-5.64-3.5-3.09-8.06-5.27-12.83-6.84-1.37-1.23-2.81-2.38-4.31-3.45,.21-.05,.42-.1,.63-.15,17.6-3.89,37.65-2.47,52.1,8.32-7.38,1.38-14.28,4.03-20.47,7.77h0Zm-35.27-14.46c-.53-.12-1.06-.23-1.59-.33,.25-.07,.49-.14,.74-.2,.29,.17,.56,.36,.85,.54h0Zm-4.92,2.23c1.93,4.29,6.06,7.67,10.08,9.98,1.23,.71,2.49,1.36,3.78,1.98-2.29,2.19-4.03,4.89-5.32,7.88-10.52-6.22-22.95-9.19-35.71-7.8,7.19-5.41,15.41-9.58,23.92-12.56,1.09,.16,2.18,.33,3.25,.51h0Zm-61.64,28.72c-.51,.13-1.03,.25-1.54,.38,.06-2.01,.39-3.97,.93-5.86,2.67-.6,5.39-.98,8.15-1.17-2.76,1.95-5.3,4.16-7.54,6.65Zm7.49,83.81c.16-.49,.32-.99,.49-1.48,.29,.27,.59,.54,.91,.8,.09,.08,.19,.14,.28,.21,.59,.81,1.22,1.58,1.88,2.31-.03,.03-.07,.06-.1,.09-1.17-.62-2.32-1.27-3.46-1.94h0Zm35.78,12.32c.03,.12,.05,.23,.08,.35,.02,.07,.04,.14,.06,.21-.74-.14-1.47-.29-2.21-.45,.69-.03,1.38-.07,2.06-.11h.01Zm3.04-.24c.11,0,.21-.02,.32-.03,1.07,.68,2.15,1.33,3.25,1.96-1.04-.16-2.08-.34-3.12-.52-.16-.47-.31-.94-.44-1.42h-.01Zm87.04,5.77c-2.58-.03-5.16-.06-7.75-.08,.59-.33,1.19-.66,1.77-1,3.94-1,7.87-2.01,11.81-3.03-1.9,1.44-3.85,2.81-5.83,4.11Zm3.91-7.66c1.51-1.15,2.98-2.35,4.41-3.59,1.75,.2,3.51,.35,5.26,.46-.32,.31-.63,.62-.95,.92-2.91,.74-5.81,1.47-8.72,2.21h0Zm28.03-7.3c-3.45,.4-6.93,.62-10.4,.67,1.06-1.35,2.06-2.74,3.01-4.19,2.22-.29,4.42-.7,6.59-1.25,.4,1.57,.67,3.16,.8,4.77Zm35.93-54.44c2.65,9.27-1.8,19.19-7.35,26.47-5.81,7.62-13.79,13.52-22.61,17.21-1.6,.67-3.23,1.27-4.89,1.79-.77-2.1-1.74-4.13-2.86-6.06,.95-2.83,1.63-5.71,2-8.62,5.41-8.55,9.03-17.99,9.4-28.01,.03-.83,.03-1.65,.01-2.46,2.85-3.27,5.15-7.01,6.64-11.08,.54-1.47,.94-2.97,1.22-4.46,8.11,2.31,16.03,6.77,18.44,15.22h0Zm-23.98-32.6c2.25,4.17,3.15,8.57,2.92,12.91-4.15-.92-8.49-1.42-12.73-1.63-5.43-7.34-13.34-12.93-22.16-16.44,1.37-3.83,1.79-8.1,.93-12.82-.17-.9-.38-1.79-.61-2.65,13.06,2.37,25.35,8.95,31.65,20.64h0Zm-87.62-45.53c16.89-.73,36.27,.86,47.5,15.2,1.38,1.76,2.6,3.69,3.6,5.72-4.72-.5-9.46-.48-14.03,.04-15.9-13.66-38.23-15.64-58.27-10.95-1.02,.24-2.03,.5-3.05,.76-.44-.25-.88-.49-1.32-.73,.03-.08,.04-.17,.07-.25,3.27-9.84,17.21-9.44,25.51-9.8h0Zm-29.08,11.73c0,.15-.02,.31-.02,.45-1.13,.36-2.26,.74-3.39,1.13-9.64-1.38-19.87-2.05-29.46-.18,9.68-6.6,22.19-6.12,32.86-1.4h0Zm-50.6,13.21c2.14-1.79,4.41-3.28,6.78-4.51-2.6,4.53-4.03,9.67-3.94,14.83-3.99-.09-7.94,.22-11.78,.94,2.09-4.34,5.27-8.19,8.94-11.26Zm-13.82,16.34c-.4,1.91-.61,3.85-.6,5.8-8.01,2.25-15.9,5.32-22.7,9.94,.88-1.1,1.81-2.17,2.8-3.2,6-6.26,13.01-10.3,20.5-12.54Zm-25.69,71.48c-3.51-5.3-5.83-11.13-6.99-17.13,2.65,4.75,6.26,9.03,10.17,12.64,4.48,4.13,9.47,7.61,14.45,11.1-.34,2.87-.52,6.09-.22,9.17-6.89-3.85-12.92-8.99-17.41-15.77h0Zm22.85,22.06c2.53,1.06,5.13,1.99,7.77,2.8-3.05,.52-5.96-.31-7.77-2.8Zm18.26,.83c1.17,.58,2.36,1.14,3.56,1.68-1.53-.23-3.06-.5-4.58-.8,.35-.29,.69-.58,1.03-.87h0Zm21.74,11.09c-2.01-1.38-3.81-2.93-5.44-4.61,1.5,.47,3,.92,4.51,1.33,4.12,1.14,8.28,2.09,12.47,2.88,1.41,3.04,3.34,5.59,5.68,7.67-6.02-1.26-11.81-3.55-17.22-7.27Zm57.67,12.88c-.23-.3-.44-.61-.62-.93,.34-.07,.67-.14,1.01-.22,.34-.04,.68-.08,1.01-.13,1.08,.68,2.18,1.33,3.3,1.95,1.9,1.05,3.86,2,5.88,2.86-3.99,.6-7.88-.06-10.58-3.54h0Zm54.78,1.34c-10.53,4.64-22.32,5.07-33.42,2.39,2.05-.99,4.04-2.07,5.96-3.08,5.22-2.73,10.48-5.6,15.53-8.81,.63-.15,1.25-.3,1.87-.46,.91-.23,1.27-.89,1.24-1.58,3.66-2.48,7.16-5.16,10.41-8.11,6-1.55,11.99-3.1,17.99-4.64-.07,.87-.17,1.74-.33,2.61-1.91,10.19-10.09,17.63-19.24,21.67h-.01Z"/>
      <path class="cls-3" d="M329.67,146.65c1.53-14.21,.07-28.71-4.65-42.22-4.92-14.09-13.51-26.72-23.71-37.51-10.53-11.14-22.72-20.57-35.53-28.94-14.32-9.36-29.52-17.42-45.44-23.69C163.88-7.96,95.29-6.22,46.92,33.78,23.94,52.79,6.74,79.56,1.64,109.17c-4.5,26.15,.24,54.18,14.21,76.86,3.23,5.24,6.93,10.13,11.07,14.68,0,0,.01,0,.02,0,.32-.39,.64-.77,.95-1.17,.26-.33,.55-.58,.85-.78C11.72,179.29,3.05,153.45,3.5,127.69c.5-28.98,12.98-56.57,32.59-77.67C76.87,6.13,140.98-3.99,197.04,11.28c30.96,8.43,60.57,24.06,85.49,44.22,22.53,18.24,40.5,42.18,43.03,71.85,5.17,60.74-45.69,108.45-99.13,126.59-27.45,9.32-57.09,11.97-85.86,8.19-1.27,.82-2.54,1.63-3.82,2.44,25.38,4.45,51.31,4.31,75.16-1.44,56.12-13.53,111.24-55.73,117.77-116.49h0Z"/>
    </g>
  </g>
  <g>
    <path class="cls-1" d="M415.31,208.03c-12.92,0-42.92-4.38-42.92-63.51,0-68.98,30.88-89.79,30.88-89.79l15.55,18.4c-15.11,16.42-25.18,41.17-25.18,68.33,0,19.27,4.82,45.11,17.96,45.11,11.17,0,13.58-17.52,13.58-17.52l16.64,11.61c-2.63,12.26-11.83,27.37-26.5,27.37Z"/>
    <path class="cls-1" d="M501.16,203.65l-20.15,4.16,1.09-48.84-16.21,2.19-.66,42.7-20.15,4.16V58.68l22.56-3.94-1.53,91.76,16.64-1.97V58.02l22.56-2.85-4.16,148.48Z"/>
    <path class="cls-1" d="M584.81,203.87l-20.15,4.16-5.47-31.75-25.18,5.26-3.94,22.56-19.05,3.94,28.03-148.48,22.12-4.82,23.65,149.14Zm-28.25-42.05l-8.32-57.81-11.61,61.98,19.93-4.16Z"/>
    <path class="cls-1" d="M614.6,206.94c-9.85-.44-30.44-5.26-26.94-77.09,3.29-68.76,25.62-75.55,46.65-74.68,4.82,.22,22.56,3.28,18.83,79.28-2.85,60.44-19.71,73.36-38.54,72.49Zm-5.26-83.66c-1.75,35.48,2.19,58.91,7.88,60.66,5.47,.22,12.92-28.91,13.8-49.93,1.09-19.05,.22-53.87-9.2-54.31-5.04-.22-10.95,11.61-12.48,43.58Z"/>
    <path class="cls-1" d="M715.55,73.57s-32.41,11.17-32.41,27.16c0,8.76,5.91,12.92,14.02,25.4,7.67,12.26,11.39,22.56,11.39,31.97,0,18.4-14.23,33.51-42.7,52.34-2.19-8.32-3.94-16.21-5.91-24.53,0,0,26.72-15.33,26.72-29.35,0-18.4-25.18-30.88-25.18-56.28,0-33.94,45.99-45.77,45.99-45.77l8.1,19.05Z"/>
    <path class="cls-1" d="M776.22,175.62c-.66,7.88-.66,17.74-.66,28.03l-21.02,4.38,5.69-141.03c6.35-6.35,19.49-12.26,29.78-12.26,15.11,0,27.37,6.35,27.37,28.47,0,24.97-24.96,68.55-41.17,92.42Zm19.93-91.76c0-6.13-2.63-9.64-6.79-9.64-2.19,0-5.04,1.1-7.88,3.29l-5.04,64.38c9.42-17.08,19.71-37.23,19.71-58.03Z"/>
    <path class="cls-1" d="M824.18,166.86c0-33.29,1.53-66.57,1.97-102.27,0,0,24.75-9.85,24.75-9.64-2.85,41.17-3.72,63.07-3.72,99.86,0,28.69,2.19,35.26,11.39,35.26,10.73,0,12.7-28.25,12.7-50.37V61.52c1.09-.44,17.96-6.13,18.83-6.35,0,86.5-.44,88.25-.44,89.57,0,30.88-2.41,63.29-44.89,63.29-17.52,0-20.59-21.68-20.59-41.17Z"/>
    <path class="cls-1" d="M917.25,56.05l18.83,102.93V58.24l21.46-3.29c0,4.82-4.16,148.48-4.16,148.48l-21.68,4.6c-4.6-30.66-18.39-67.89-18.39-67.89l5.47,63.95-20.37,3.72V59.77l18.83-3.72Z"/>
    <path class="cls-1" d="M1011.64,58.9l23.87-4.16c-1.53,28.03-34.82,94.61-34.82,94.61,0,0,3.94,13.8,36.35,35.26l-17.74,22.99c-16.86-13.8-24.53-27.59-28.25-36.35l-3.94,1.31c-.66,8.76-.66,19.27-.66,25.4v5.26l-23.43,4.82,5.47-148.04,24.31-5.26-5.26,79.5c9.85-18.18,23.21-53.44,24.09-75.33Z"/>
  </g>
</svg>